# File produced by Open Asset Import Library (http://www.assimp.sf.net)
# (assimp v3.1.187496374)

mtllib Animal_Fish_01.obj.mtl

# 27 vertex positions
v  0.507562 5.71937 0.0184005
v  -1.29747 5.66255 0.212561
v  -0.174563 -7.0418e-05 8.21617e-07
v  -7.25508 2.36232 0.0567211
v  -4.90261 1.4201 -0.856105
v  -4.89545 -7.27264e-05 0.0378188
v  -4.88829 1.4201 0.931743
v  4.55348 3.07877 0.856108
v  4.54632 2.03008 -0.0378163
v  -2.53143 5.28645 0.465874
v  4.53916 3.07877 -0.931739
v  7.25508 0.180833 -0.0595166
v  -4.89545 5.83545 0.0378213
v  -6.07885 4.17823 -0.399691
v  -7.25508 3.61903 0.0567216
v  -4.90261 4.73744 -0.856104
v  7.25508 6.08657 -0.059514
v  6.03045 3.04515 -0.0497042
v  -4.88829 3.07877 0.931743
v  -4.88829 4.73744 0.931744
v  -2.53859 5.28645 -0.42805
v  -1.7233 6.1255 -0.0135004
v  -4.90261 3.07877 -0.856104
v  -0.174059 7.90619 0.0292958
v  -6.07169 4.17823 0.494233
v  4.54632 4.06022 -0.0378154
v  -1.3157 5.67091 -0.235308

# 158 UV coordinates
vt 0.050265 0.176725 0
vt -0.131279 0.171043 0
vt -0.0173552 -0.395292 0
vt 0.613739 0.041472 0
vt 0.366442 -0.0652786 0
vt 0.414103 -0.226179 0
vt -0.613888 0.0413607 0
vt -0.414252 -0.22629 0
vt -0.366591 -0.0653898 0
vt 0.396152 0.081885 0
vt -0.0163411 -0.312469 0
vt 0.42692 -0.0524375 0
vt -0.131375 0.170964 0
vt -0.257344 0.133353 0
vt -0.0171027 -0.395301 0
vt -0.437988 -0.160126 0
vt -0.627151 -0.520081 0
vt -0.393025 -0.290385 0
vt -0.447309 -0.0366903 0
vt 0.0174231 -0.367886 0
vt 0.494606 -0.215116 0
vt 0.388798 -0.00349354 0
vt 0.455368 -0.200852 0
vt 0.576242 -0.267448 0
vt 0.334494 -0.134256 0
vt -0.622924 0.284128 0
vt -0.517766 -0.0264234 0
vt -0.344506 -0.0229896 0
vt -0.497618 -0.0874289 0
vt -0.497618 -0.253296 0
vt -0.0171249 -0.395313 0
vt -0.257371 0.133339 0
vt -0.497618 0.0784381 0
vt 0.437847 -0.160269 0
vt 0.392884 -0.290529 0
vt 0.62701 -0.520225 0
vt 0.495214 0.0504343 0
vt 0.256311 0.110918 0
vt -0.445875 -0.132299 0
vt -0.130557 0.143899 0
vt -0.172103 0.196257 0
vt -0.254949 0.101361 0
vt 0.447328 -0.0367931 0
vt -0.494587 -0.215219 0
vt -0.0174036 -0.367988 0
vt 0.489559 0.00429808 0
vt 0.489559 0.145888 0
vt 0.253508 0.0750932 0
vt -0.489559 -0.166815 0
vt -0.489559 -0.334626 0
vt -0.0174557 -0.334626 0
vt 0.489559 -0.0874289 0
vt -0.454648 -0.0874289 0
vt 0.489559 -0.253296 0
vt 0.489559 0.0784381 0
vt -0.118887 0.155215 0
vt -0.0159274 0.384768 0
vt -0.166048 0.20258 0
vt -0.426188 -0.0874289 0
vt -0.678524 -0.159073 0
vt -0.426188 -0.253296 0
vt -0.552356 0.0225177 0
vt -0.426188 0.0784381 0
vt -0.678524 -0.0334027 0
vt -0.489559 0.0784381 0
vt -0.489559 -0.0874289 0
vt 0.454648 -0.0874289 0
vt -0.489559 -0.253296 0
vt -0.13099 0.153164 0
vt -0.25596 0.112354 0
vt 0.447487 -0.127195 0
vt -0.256135 0.108587 0
vt -0.171624 0.202003 0
vt -0.494874 0.0474634 0
vt -0.396056 0.0820488 0
vt -0.426824 -0.0522736 0
vt 0.0164374 -0.312305 0
vt -0.495191 0.0505513 0
vt 0.445898 -0.132182 0
vt -0.256289 0.111034 0
vt -0.0483906 0.124245 0
vt -0.426591 -0.0940201 0
vt -0.3957 -0.223131 0
vt 0.463353 -0.0872504 0
vt 0.0492162 0.176916 0
vt -0.0170605 -0.395259 0
vt -0.388968 -0.00337289 0
vt -0.455538 -0.200732 0
vt -0.334664 -0.134136 0
vt -0.576412 -0.267328 0
vt 0.678425 -0.159073 0
vt 0.426089 -0.0874289 0
vt 0.426089 -0.253296 0
vt 0.678425 -0.0334027 0
vt 0.552257 0.0225177 0
vt 0.426089 0.0784381 0
vt 0.131646 0.14403 0
vt 0.253998 0.101201 0
vt 0.172334 0.19467 0
vt -0.0505948 0.152915 0
vt -0.438922 -0.147909 0
vt 0.133469 0.147394 0
vt -0.59966 0.416077 0
vt -0.426138 0.0396095 0
vt -0.375801 0.162451 0
vt 0.489559 -0.166666 0
vt 0.0174557 -0.334477 0
vt 0.489559 -0.334477 0
vt -0.0505239 0.176684 0
vt 0.0172888 -0.39531 0
vt 0.133559 0.171838 0
vt -0.488497 0.125781 0
vt -0.482586 -0.0156858 0
vt -0.172117 0.16315 0
vt 0.133551 0.171338 0
vt 0.0168424 0.395118 0
vt -0.0505321 0.17619 0
vt 0.17185 0.183389 0
vt 0.250409 0.0872956 0
vt 0.488693 0.150171 0
vt 0.599503 0.416217 0
vt 0.375643 0.16259 0
vt 0.42598 0.0397488 0
vt 0.342062 -0.153129 0
vt 0.619954 -0.44999 0
vt 0.515321 -0.156574 0
vt 0.046632 0.121439 0
vt 0.393278 -0.225369 0
vt 0.425038 -0.096469 0
vt 0.132455 0.155243 0
vt -0.44952 -0.120694 0
vt 0.255456 0.114316 0
vt -0.0176181 0.395127 0
vt -0.131269 0.170675 0
vt 0.050275 0.176359 0
vt -0.341916 -0.153181 0
vt -0.515176 -0.156626 0
vt -0.619809 -0.450042 0
vt -0.463319 -0.0873594 0
vt 0.0171366 -0.395302 0
vt -0.0501776 0.176751 0
vt 0.49767 -0.0874289 0
vt 0.49767 0.0784381 0
vt 0.257423 0.133339 0
vt 0.0171769 -0.395313 0
vt 0.49767 -0.253296 0
vt 0.0175788 0.383651 0
vt 0.12128 0.153554 0
vt 0.166337 0.200349 0
vt 0.133636 0.1718 0
vt 0.0172357 -0.395322 0
vt 0.257434 0.133352 0
vt 0.0503675 0.157874 0
vt -0.131158 0.151625 0
vt 0.445453 -0.132552 0
vt 0.623068 0.284079 0
vt 0.344649 -0.0230384 0
vt 0.517909 -0.0264721 0

# 146 vertex normals
vn 0.107432 -0.0159742 0.994084
vn 0.107431 -0.0159741 0.994084
vn 0.107434 -0.0160485 0.994083
vn -0.476504 -0.470066 -0.742955
vn -0.476598 -0.470041 -0.742911
vn -0.476599 -0.470036 -0.742913
vn -0.464582 -0.470042 0.750482
vn -0.464582 -0.470052 0.750476
vn -0.464584 -0.470056 0.750473
vn 0.274563 -0.624895 0.730836
vn 0.274572 -0.624852 0.730869
vn 0.274563 -0.624848 0.730877
vn 0.200236 0.00290861 0.979743
vn 0.2002 0.00290861 0.979751
vn 0.200233 0.00296688 0.979744
vn -0.410463 -0.59314 -0.692608
vn -0.410461 -0.593211 -0.692548
vn -0.410366 -0.593209 -0.692606
vn 0.0574111 -0.3685 -0.927854
vn 0.0573113 -0.368501 -0.927859
vn 0.0572682 -0.368501 -0.927862
vn -0.515366 0.54307 -0.662928
vn -0.515413 0.543022 -0.662931
vn -0.515366 0.543094 -0.662908
vn -0.515412 0.54302 -0.662933
vn 0.495148 -0.202083 -0.84498
vn 0.495147 -0.202155 -0.844963
vn 0.495242 -0.202083 -0.844925
vn 0.19393 -9.99923e-08 0.981015
vn 0.193912 -4.87075e-07 0.981019
vn 0.193906 -9.9995e-08 0.98102
vn 0.193977 -9.9987e-08 0.981006
vn -0.399208 -0.593186 0.699116
vn -0.399208 -0.59321 0.699096
vn -0.399399 -0.593186 0.699007
vn 0.0665188 0.41957 -0.905283
vn 0.0664233 0.419665 -0.905246
vn 0.0664711 0.419665 -0.905242
vn 0.0389338 0.467157 0.883317
vn 0.0389696 0.467157 0.883315
vn 0.0722887 -0.368548 0.926794
vn 0.0721931 -0.368499 0.926821
vn 0.0721635 -0.368503 0.926822
vn -0.006199 0.631379 -0.775449
vn -0.00619901 0.63138 -0.775449
vn -0.00624668 0.631379 -0.775449
vn 0.00677121 -0.532687 0.846285
vn 0.00677121 -0.532727 0.84626
vn 0.00677866 -0.532727 0.84626
vn -0.00801094 1.18505e-07 -0.999968
vn -0.268996 0.211477 0.939638
vn -0.268972 0.211477 0.939644
vn -0.268972 0.211477 0.939644
vn -0.346756 -1.42127e-07 0.937956
vn -0.346756 -1.42127e-07 0.937955
vn -0.346756 -1.42127e-07 0.937955
vn -0.346708 -1.42125e-07 0.937973
vn -0.346756 -1.42127e-07 0.937955
vn 0.00805862 -1.18501e-07 0.999968
vn 0.00801094 -1.18505e-07 0.999968
vn 0.0081063 -1.18497e-07 0.999967
vn 0.0703335 0.388193 0.91889
vn 0.0703097 0.388193 0.918892
vn 0.0703811 0.388121 0.918917
vn 0.0745536 0.439549 0.895119
vn 0.0745535 0.439548 0.895119
vn 0.0744821 0.439644 0.895078
vn 0.262833 -0.624848 -0.735176
vn 0.262928 -0.624823 -0.735163
vn 0.262831 -0.624851 -0.735174
vn 0.0810145 0.419663 0.904057
vn 0.0810148 0.419617 0.904079
vn 0.0809669 0.419664 0.904061
vn 0.256944 0.649786 -0.715373
vn 0.257015 0.649738 -0.71539
vn 0.257016 0.649765 -0.715366
vn 0.211716 -0.0283481 0.97692
vn 0.211638 -0.0283242 0.976938
vn 0.211644 -0.0284023 0.976934
vn -0.504685 0.54307 0.671095
vn -0.504684 0.543069 0.671097
vn -0.504685 0.54307 0.671095
vn -0.504684 0.543093 0.671076
vn -0.361777 7.95071e-08 -0.932265
vn -0.361777 7.95071e-08 -0.932265
vn -0.361681 7.95199e-08 -0.932302
vn 0.0029682 0.440646 -0.897676
vn 0.00295628 0.440646 -0.897676
vn 0.00296819 0.440741 -0.89763
vn 0.108474 0.479031 -0.87107
vn 0.108528 0.479078 -0.871037
vn 0.108492 0.479031 -0.871067
vn -0.455189 0.60134 -0.656653
vn -0.455143 0.601413 -0.656619
vn -0.455189 0.601339 -0.656654
vn -0.00677112 -0.532687 -0.846285
vn -0.00677857 -0.532727 -0.84626
vn -0.00677111 -0.532727 -0.84626
vn 0.138152 -0.0132083 -0.990323
vn 0.138156 -0.0132616 -0.990322
vn 0.138163 -0.0133036 -0.99032
vn -0.0450611 0.630522 0.774862
vn -0.0450612 0.630523 0.774862
vn -0.0450849 0.630522 0.774861
vn 0.136435 0.0473501 -0.989517
vn 0.13643 0.0474931 -0.989511
vn 0.136423 0.0474931 -0.989511
vn -0.0586511 0.487471 -0.871167
vn -0.0586749 0.48747 -0.871166
vn -0.0586034 0.487471 -0.871171
vn -0.444596 0.601377 0.663837
vn -0.444508 0.601387 0.663888
vn -0.444509 0.601389 0.663885
vn 0.513983 0.216842 0.829941
vn 0.513983 0.216854 0.829937
vn 0.513935 0.216866 0.829964
vn 0.276184 0.648308 0.709521
vn 0.27628 0.648262 0.709524
vn 0.276232 0.648308 0.709502
vn 0.0401496 0.342894 -0.938516
vn 0.0401972 0.34287 -0.938522
vn 0.0401495 0.342893 -0.938516
vn 0.106029 0.0282286 0.993962
vn 0.106013 0.0280856 0.993968
vn 0.106025 0.0280856 0.993967
vn 0.500584 0.216914 -0.838072
vn 0.500584 0.216866 -0.838084
vn 0.500488 0.216875 -0.838139
vn 0.190497 -0.0195502 -0.981493
vn 0.190456 -0.0195597 -0.981501
vn 0.190455 -0.0195025 -0.981502
vn 0.178147 1.32877e-07 -0.984004
vn 0.17817 1.32878e-07 -0.984
vn 0.178175 6.66206e-07 -0.983999
vn -0.246717 0.23737 -0.939567
vn -0.246716 0.237274 -0.939592
vn -0.246716 0.237274 -0.939592
vn 0.158477 -0.00905977 -0.987321
vn 0.158469 -0.00908308 -0.987322
vn 0.158429 -0.00910747 -0.987328
vn 0.0842631 0.416374 0.90528
vn 0.0842691 0.416374 0.90528
vn 0.0844002 0.416279 0.905311
vn 0.508692 -0.202084 0.836896
vn 0.50869 -0.202131 0.836885
vn 0.50869 -0.202131 0.836886

# Mesh 'Animal_Fish_01' with 62 faces
g Animal_Fish_01
usemtl Blue23
f  1/1/1 2/2/2 3/3/3
f  4/4/4 5/5/5 6/6/6
f  4/7/7 6/8/8 7/9/9
f  8/10/10 3/11/11 9/12/12
f  2/13/13 10/14/14 3/15/15
f  11/16/16 12/17/17 9/18/18
f  11/19/19 3/20/20 5/21/21
f  13/22/22 14/23/23 15/24/24
f  14/23/23 13/22/22 16/25/25
f  17/26/26 18/27/27 11/28/28
f  19/29/29 7/30/29 3/31/30
f  19/29/29 3/31/30 10/32/31
f  10/32/31 20/33/32 19/29/29
f  8/34/33 9/35/34 12/36/35
f  16/37/36 21/38/37 11/39/38
f  2/40/39 22/41/40 10/42/39
f  8/43/41 7/44/42 3/45/43
f  16/46/44 13/47/45 21/48/46
f  7/49/47 6/50/48 3/51/49
f  23/52/50 11/53/50 5/54/50
f  16/55/50 11/53/50 23/52/50
f  2/56/51 24/57/52 22/58/53
f  19/59/54 4/60/55 7/61/54
f  25/62/56 4/60/55 19/59/54
f  25/62/56 19/59/54 20/63/57
f  25/62/56 15/64/58 4/60/55
f  20/65/59 19/66/60 8/67/61
f  19/66/60 7/68/60 8/67/61
f  2/69/62 10/70/63 8/71/64
f  10/72/65 22/73/66 20/74/67
f  11/75/68 9/76/69 3/77/70
f  20/78/71 8/79/72 10/80/73
f  1/81/74 26/82/75 11/83/76
f  11/84/77 1/85/78 3/86/79
f  13/87/80 25/88/81 20/89/82
f  25/88/81 13/87/80 15/90/83
f  4/91/84 23/92/84 5/93/84
f  23/92/84 4/91/84 15/94/85
f  23/92/84 15/94/85 14/95/86
f  14/95/86 16/96/84 23/92/84
f  27/97/87 21/98/88 22/99/89
f  1/100/90 11/101/91 27/102/92
f  17/103/93 11/104/94 26/105/95
f  5/106/96 3/107/97 6/108/98
f  1/109/99 3/110/100 27/111/101
f  13/112/102 20/113/103 22/114/104
f  27/115/105 24/116/106 1/117/107
f  22/118/108 21/119/109 13/120/110
f  17/121/111 26/122/112 8/123/113
f  8/124/114 12/125/115 18/126/116
f  1/127/117 8/128/118 26/129/119
f  27/130/120 11/131/121 21/132/122
f  24/133/123 2/134/124 1/135/125
f  11/136/126 18/137/127 12/138/128
f  8/139/129 3/140/130 1/141/131
f  23/142/132 16/143/132 21/144/133
f  23/142/132 21/144/133 3/145/134
f  3/145/134 5/146/132 23/142/132
f  24/147/135 27/148/136 22/149/137
f  27/150/138 3/151/139 21/152/140
f  1/153/141 2/154/142 8/155/143
f  17/156/144 8/157/145 18/158/146

